<?xml version="1.0" encoding="UTF-8" standalone="no"?>
<!-- Created with Inkscape (http://www.inkscape.org/) -->

<svg
   width="100"
   height="100"
   viewBox="0 0 24.51264 24.51264"
   version="1.1"
   id="svg5"
   sodipodi:docname="info.svg"
   inkscape:version="1.2.1 (9c6d41e410, 2022-07-14)"
   inkscape:export-filename="info.png"
   inkscape:export-xdpi="96.289986"
   inkscape:export-ydpi="96.289986"
   xmlns:inkscape="http://www.inkscape.org/namespaces/inkscape"
   xmlns:sodipodi="http://sodipodi.sourceforge.net/DTD/sodipodi-0.dtd"
   xmlns="http://www.w3.org/2000/svg"
   xmlns:svg="http://www.w3.org/2000/svg">
  <sodipodi:namedview
     id="namedview7"
     pagecolor="#505050"
     bordercolor="#eeeeee"
     borderopacity="1"
     inkscape:pageshadow="0"
     inkscape:pageopacity="0"
     inkscape:pagecheckerboard="false"
     inkscape:document-units="mm"
     showgrid="false"
     units="px"
     inkscape:zoom="11.313709"
     inkscape:cx="48.613591"
     inkscape:cy="52.679455"
     inkscape:window-width="3840"
     inkscape:window-height="2054"
     inkscape:window-x="2149"
     inkscape:window-y="454"
     inkscape:window-maximized="1"
     inkscape:current-layer="layer1"
     inkscape:showpageshadow="0"
     inkscape:deskcolor="#505050" />
  <defs
     id="defs2">
    <inkscape:path-effect
       effect="fillet_chamfer"
       id="path-effect2758"
       is_visible="true"
       lpeversion="1"
       nodesatellites_param="F,0,0,1,0,0.52916667,0,1 @ F,0,0,1,0,0.52916667,0,1 @ F,0,0,1,0,0.52916667,0,1 @ F,0,0,1,0,0.52916667,0,1 @ F,0,0,1,0,0.52916667,0,1 @ F,0,0,1,0,0.52916667,0,1 @ F,0,0,1,0,0.52916667,0,1 @ F,0,0,1,0,0.52916667,0,1 @ F,0,0,1,0,0.52916667,0,1 @ F,0,0,1,0,0.52916667,0,1"
       unit="px"
       method="auto"
       mode="F"
       radius="2"
       chamfer_steps="1"
       flexible="false"
       use_knot_distance="true"
       apply_no_radius="true"
       apply_with_radius="true"
       only_selected="false"
       hide_knots="false" />
  </defs>
  <g
     inkscape:label="Layer 1"
     inkscape:groupmode="layer"
     id="layer1"
     style="display:inline"
     transform="translate(-1.0097575,-1.0097575)">
    <path
       id="path2008"
       style="display:inline;fill:#ffffff;stroke-width:2.02233;stroke-linecap:round;stroke-linejoin:round"
       d="M 13.266078,1.0466683 A 12.219229,12.219229 0 0 0 1.0466683,13.266078 12.219229,12.219229 0 0 0 13.266078,25.485487 12.219229,12.219229 0 0 0 25.485487,13.266078 12.219229,12.219229 0 0 0 13.266078,1.0466683 Z m 0,3.5284668 a 2.1753924,2.1753924 0 0 1 2.175577,2.1755778 2.1753924,2.1753924 0 0 1 -2.175577,2.175061 2.1753924,2.1753924 0 0 1 -2.175578,-2.175061 2.1753924,2.1753924 0 0 1 2.175578,-2.1755778 z m -2.719731,6.2833379 h 3.960482 a 0.52916667,0.52916667 0 0 1 0.529166,0.529166 v 6.605282 a 0.52916667,0.52916667 0 0 0 0.529167,0.529167 h 1.30483 a 0.52916667,0.52916667 0 0 1 0.529167,0.529166 v 1.491899 A 0.52916661,0.52916661 0 0 1 16.869992,21.07232 H 9.7546639 A 0.52916673,0.52916673 0 0 1 9.2254972,20.543153 v -1.467611 a 0.52916667,0.52916667 0 0 1 0.5291667,-0.529166 h 2.0112471 a 0.52916667,0.52916667 0 0 0 0.529167,-0.529167 V 13.868108 A 0.52916667,0.52916667 0 0 0 11.765911,13.338941 H 10.546347 A 0.52916667,0.52916667 0 0 1 10.01718,12.809775 v -1.422136 a 0.52916667,0.52916667 0 0 1 0.529167,-0.529166 z" />
    <circle
       style="display:none;fill:#333333;fill-opacity:1;stroke:none;stroke-width:2.64248;stroke-linecap:round;stroke-linejoin:round"
       id="path2644"
       cx="13.229167"
       cy="6.7136688"
       r="2.1753924" />
    <path
       style="display:none;fill:#333333;fill-opacity:1;stroke:none;stroke-width:0.276533px;stroke-linecap:butt;stroke-linejoin:miter;stroke-opacity:1"
       d="m 9.1887242,20.506269 v -1.467545 a 0.52916667,0.52916667 135 0 1 0.5291667,-0.529167 h 2.0112741 a 0.52916667,0.52916667 135 0 0 0.529167,-0.529167 v -4.149395 a 0.52916667,0.52916667 45 0 0 -0.529167,-0.529167 h -1.21951 A 0.52916667,0.52916667 45 0 1 9.9804885,12.772661 v -1.421929 a 0.52916667,0.52916667 135 0 1 0.5291665,-0.529167 l 3.96023,0 a 0.52916667,0.52916667 45 0 1 0.529167,0.529167 v 6.605136 a 0.52916667,0.52916667 45 0 0 0.529167,0.529167 h 1.304775 a 0.52916667,0.52916667 45 0 1 0.529167,0.529167 v 1.492068 a 0.52916661,0.52916661 135 0 1 -0.529167,0.529167 l -7.1151031,-1e-6 A 0.52916673,0.52916673 45.000004 0 1 9.1887242,20.506269 Z"
       id="path2752"
       sodipodi:nodetypes="ccccccccccc"
       inkscape:path-effect="#path-effect2758"
       inkscape:original-d="M 9.1887242,21.035436 V 18.509557 H 12.258332 V 13.301828 H 9.9804885 v -2.480263 h 5.0185635 v 7.66347 h 2.363109 v 2.550402 z" />
  </g>
</svg>
