<?xml version="1.0" encoding="UTF-8" standalone="no"?>
<svg
   width="60"
   height="60"
   viewBox="0 0 15.875 15.875"
   version="1.1"
   id="svg8"
   inkscape:version="1.2.1 (0f2f062aeb, 2022-09-21, custom)"
   sodipodi:docname="settings.svg"
   inkscape:export-filename="../aa95d6f8/settings.png"
   inkscape:export-xdpi="192"
   inkscape:export-ydpi="192"
   xmlns:inkscape="http://www.inkscape.org/namespaces/inkscape"
   xmlns:sodipodi="http://sodipodi.sourceforge.net/DTD/sodipodi-0.dtd"
   xmlns="http://www.w3.org/2000/svg"
   xmlns:svg="http://www.w3.org/2000/svg"
   xmlns:rdf="http://www.w3.org/1999/02/22-rdf-syntax-ns#"
   xmlns:cc="http://creativecommons.org/ns#"
   xmlns:dc="http://purl.org/dc/elements/1.1/">
  <defs
     id="defs2">
    <inkscape:path-effect
       effect="fillet_chamfer"
       id="path-effect6064"
       is_visible="true"
       lpeversion="1"
       nodesatellites_param="F,0,0,1,0,0.37,0,1 @ F,0,0,1,0,0.37,0,1 @ F,0,0,1,0,0.37,0,1 @ F,0,0,1,0,0.37,0,1 @ F,0,0,1,0,0.37,0,1 @ F,0,0,1,0,0.37,0,1 @ F,0,0,1,0,0.37,0,1 @ F,0,0,1,0,0.37,0,1 @ F,0,0,1,0,0.37,0,1 @ F,0,0,1,0,0.37,0,1 @ F,0,0,1,0,0.37,0,1 @ F,0,0,1,0,0.37,0,1 @ F,0,0,1,0,0.37,0,1 @ F,0,0,1,0,0.37,0,1 @ F,0,0,1,0,0.37,0,1 @ F,0,0,1,0,0.37,0,1 @ F,0,0,1,0,0.37,0,1 @ F,0,0,1,0,0.37,0,1 @ F,0,0,1,0,0.37,0,1 @ F,0,0,1,0,0.37,0,1 @ F,0,0,1,0,0.37,0,1 @ F,0,0,1,0,0.37,0,1 @ F,0,0,1,0,0.37,0,1 @ F,0,0,1,0,0.37,0,1 @ F,0,0,1,0,0.37,0,1 @ F,0,0,1,0,0.37,0,1 | F,0,0,1,0,0.37,0,1 @ F,0,0,1,0,0.37,0,1 @ F,0,0,1,0,0.37,0,1 @ F,0,0,1,0,0.37,0,1"
       unit="px"
       method="auto"
       mode="F"
       radius="0.37"
       chamfer_steps="1"
       flexible="false"
       use_knot_distance="true"
       apply_no_radius="true"
       apply_with_radius="true"
       only_selected="false"
       hide_knots="false" />
    <inkscape:path-effect
       effect="fillet_chamfer"
       id="path-effect6058"
       is_visible="true"
       lpeversion="1"
       nodesatellites_param="F,0,0,1,0,0,0,1 @ F,0,0,1,0,0,0,1 @ F,0,0,1,0,0,0,1 @ F,0,0,1,0,0,0,1 @ F,0,0,1,0,0,0,1 @ F,0,0,1,0,0,0,1 @ F,0,0,1,0,0,0,1 @ F,0,0,1,0,0,0,1 @ F,0,0,1,0,0,0,1 @ F,0,0,1,0,0,0,1 @ F,0,0,1,0,0,0,1 @ F,0,0,1,0,0,0,1 @ F,0,0,1,0,0,0,1 @ F,0,0,1,0,0,0,1 @ F,0,0,1,0,0,0,1 @ F,0,0,1,0,0,0,1 @ F,0,0,1,0,0,0,1 @ F,0,0,1,0,0,0,1 @ F,0,0,1,0,0,0,1 @ F,0,0,1,0,0,0,1 @ F,0,0,1,0,0,0,1 @ F,0,0,1,0,0,0,1 @ F,0,0,1,0,0,0,1 @ F,0,0,1,0,0,0,1 @ F,0,0,1,0,0,0,1 @ F,0,0,1,0,0,0,1"
       unit="px"
       method="auto"
       mode="F"
       radius="0.4"
       chamfer_steps="1"
       flexible="false"
       use_knot_distance="true"
       apply_no_radius="true"
       apply_with_radius="true"
       only_selected="false"
       hide_knots="false" />
    <inkscape:path-effect
       effect="fillet_chamfer"
       id="path-effect862"
       is_visible="true"
       satellites_param="F,0,0,1,0,0.83561203,0,1 @ F,0,0,1,0,1.6202445,0,1 @ F,0,0,1,0,0.88991656,0,1 @ F,0,0,1,0,0.83547811,0,1 @ F,0,0,1,0,1.6201386,0,1 @ F,0,0,1,0,0.88986941,0,1 @ F,0,0,1,0,4.4766689e-06,0,1 @ F,0,0,1,0,0.83552171,0,1 @ F,0,0,1,0,1.6200521,0,1 @ F,0,0,1,0,0.88977884,0,1 @ F,0,0,1,0,0.83561179,0,1 @ F,0,0,1,0,1.6202443,0,1 @ F,0,0,1,0,0.88991652,0,1 @ F,0,0,1,0,0.83547822,0,1 @ F,0,0,1,0,1.6201386,0,1 @ F,0,0,1,0,0.88986924,0,1 @ F,0,0,1,0,4.3208407e-06,0,1 @ F,0,0,1,0,0.83552155,0,1 @ F,0,0,1,0,1.6200523,0,1 @ F,0,0,1,0,0.88977885,0,1"
       unit="px"
       method="arc"
       mode="F"
       radius="1"
       chamfer_steps="1"
       flexible="false"
       use_knot_distance="false"
       apply_no_radius="true"
       apply_with_radius="true"
       only_selected="false"
       hide_knots="false"
       nodesatellites_param="F,0,0,1,0,0.83561203,0,1 @ F,0,0,1,0,1.6202445,0,1 @ F,0,0,1,0,0.88991656,0,1 @ F,0,0,1,0,0.83547811,0,1 @ F,0,0,1,0,1.6201386,0,1 @ F,0,0,1,0,0.88986941,0,1 @ F,0,0,1,0,4.4766689e-06,0,1 @ F,0,0,1,0,0.83552171,0,1 @ F,0,0,1,0,1.6200521,0,1 @ F,0,0,1,0,0.88977884,0,1 @ F,0,0,1,0,0.83561179,0,1 @ F,0,0,1,0,1.6202443,0,1 @ F,0,0,1,0,0.88991652,0,1 @ F,0,0,1,0,0.83547822,0,1 @ F,0,0,1,0,1.6201386,0,1 @ F,0,0,1,0,0.88986924,0,1 @ F,0,0,1,0,4.3208407e-06,0,1 @ F,0,0,1,0,0.83552155,0,1 @ F,0,0,1,0,1.6200523,0,1 @ F,0,0,1,0,0.88977885,0,1" />
  </defs>
  <sodipodi:namedview
     id="base"
     pagecolor="#1e1e1e"
     bordercolor="#666666"
     borderopacity="1.0"
     inkscape:pageopacity="0"
     inkscape:pageshadow="2"
     inkscape:zoom="11.313709"
     inkscape:cx="20.771262"
     inkscape:cy="24.439378"
     inkscape:document-units="px"
     inkscape:current-layer="layer1"
     showgrid="false"
     units="px"
     inkscape:window-width="2560"
     inkscape:window-height="1376"
     inkscape:window-x="0"
     inkscape:window-y="27"
     inkscape:window-maximized="1"
     inkscape:pagecheckerboard="true"
     inkscape:document-rotation="0"
     inkscape:showpageshadow="2"
     inkscape:deskcolor="#1e1e1e"
     showguides="false" />
  <metadata
     id="metadata5">
    <rdf:RDF>
      <cc:Work
         rdf:about="">
        <dc:format>image/svg+xml</dc:format>
        <dc:type
           rdf:resource="http://purl.org/dc/dcmitype/StillImage" />
        <dc:title />
      </cc:Work>
    </rdf:RDF>
  </metadata>
  <g
     inkscape:label="circle"
     inkscape:groupmode="layer"
     id="layer1"
     transform="rotate(180,7.937804,143.20766)"
     style="display:inline"
     inkscape:transform-center-x="0.015539163"
     inkscape:transform-center-y="3.0833254">
    <path
       id="path5889"
       style="fill:#ffffff;fill-opacity:1;stroke:#ffffff;stroke-width:0;stroke-dasharray:none;stroke-opacity:1"
       d="m -5.5580847,-284.75825 -0.3003704,0.33577 c -0.136243,0.1523 -0.3553257,0.40181 -0.5084078,0.53698 -0.9485378,0.83759 -2.2209165,0.8747 -3.0969708,0.0818 -0.1513628,-0.137 -0.3649088,-0.39159 -0.5010713,-0.54396 l -0.362157,-0.40527 c -0.136163,-0.15237 -0.400731,-0.21495 -0.586037,-0.12887 -0.381629,0.17727 -0.746657,0.38829 -1.090722,0.63054 -0.167062,0.11762 -0.245097,0.37821 -0.181304,0.57234 l 0.140022,0.42611 c 0.06379,0.19413 0.170351,0.50862 0.21088,0.70877 0.251147,1.24035 -0.352763,2.36127 -1.477453,2.72358 -0.194321,0.0626 -0.521578,0.12024 -0.721617,0.16197 l -0.533918,0.11139 c -0.200039,0.0417 -0.386786,0.23952 -0.405224,0.44301 -0.0077,0.0854 -0.01392,0.17088 -0.01854,0.25648 -0.01102,0.20402 -0.01106,0.5356 -8.2e-5,0.73963 0.0046,0.0861 0.01084,0.17213 0.01862,0.25802 0.01844,0.20349 0.20516,0.4014 0.405168,0.44327 l 0.433259,0.0907 c 0.200008,0.0419 0.525627,0.10688 0.719233,0.17186 1.199681,0.40267 1.868153,1.48613 1.61952,2.6413 -0.04296,0.19958 -0.156711,0.5118 -0.220641,0.70589 l -0.171049,0.51929 c -0.06393,0.19409 0.01396,0.45468 0.18098,0.57238 0.348037,0.24524 0.71754,0.45852 1.103987,0.63721 0.185451,0.0858 0.450234,0.023 0.586534,-0.12924 l 0.297061,-0.33181 c 0.1363007,-0.15225 0.3554289,-0.40172 0.5085041,-0.5369 0.9485366,-0.83767 2.2209171,-0.87513 3.0969735,-0.0823 0.1513686,0.13699 0.3648985,0.39159 0.5010417,0.54398 l 0.3601599,0.40314 c 0.1361432,0.15239 0.4007185,0.21504 0.5860561,0.12903 0.3817515,-0.17716 0.7469092,-0.38808 1.0911079,-0.63025 0.167103,-0.11757 0.2451954,-0.37811 0.1814291,-0.57225 l -0.1401186,-0.42661 c -0.063766,-0.19414 -0.1703035,-0.50863 -0.2108335,-0.70878 -0.2511417,-1.24028 0.3527672,-2.36083 1.4774529,-2.72307 0.1943242,-0.0626 0.5215886,-0.12019 0.7216373,-0.16188 l 0.5354313,-0.11156 c 0.2000486,-0.0417 0.38688916,-0.23943 0.40543178,-0.44291 0.007843,-0.0861 0.0141057,-0.17226 0.018785,-0.25856 0.0110632,-0.20402 0.0112832,-0.5356 4.9072e-4,-0.73964 -0.004407,-0.0833 -0.0102899,-0.16655 -0.0176459,-0.24965 -0.0180143,-0.20353 -0.20439932,-0.40147 -0.40441102,-0.44334 l -0.4435809,-0.0928 c -0.2000117,-0.0419 -0.5256324,-0.10686 -0.7192402,-0.17184 -1.1997484,-0.40267 -1.8685906,-1.48613 -1.6200256,-2.64129 0.042946,-0.19959 0.1566861,-0.51181 0.2205978,-0.70591 l 0.1747321,-0.53064 c 0.063912,-0.1941 -0.01409,-0.45457 -0.1812254,-0.5721 -0.3457078,-0.2431 -0.7125408,-0.45469 -1.0960767,-0.63221 -0.1854197,-0.0858 -0.4501331,-0.0231 -0.5863761,0.12921 z m -2.0112692,3.7337 c 1.1258326,0.16162 2.0163043,1.05206 2.1779609,2.17788 0.029027,0.20215 0.029025,0.5355 1.31e-5,0.7376 -0.1616169,1.12584 -1.0520624,2.01631 -2.1778822,2.17797 -0.20215,0.029 -0.5354995,0.029 -0.7376,1e-5 -1.1258328,-0.16162 -2.0163049,-1.05206 -2.1779609,-2.17788 -0.02903,-0.20215 -0.02903,-0.5355 -1.4e-5,-0.7376 0.161617,-1.12584 1.0520632,-2.01631 2.1778831,-2.17797 0.20215,-0.029 0.5354995,-0.029 0.7376,-10e-6 z"
       transform="scale(-1)"
       inkscape:path-effect="#path-effect6064"
       inkscape:original-d="M -5.3113949 -285.03401 L -6.1051449 -284.14672 C -7.1589434 -282.96173 -8.7751821 -282.91985 -9.7183611 -284.07179 L -10.573606 -285.02884 C -11.193614 -284.77942 -11.775088 -284.44328 -12.300632 -284.03045 L -11.929596 -282.90132 C -11.43024 -281.39619 -12.201896 -279.97492 -13.671091 -279.73407 L -14.929413 -279.47156 C -14.976718 -279.14242 -15.000721 -278.81034 -15.001243 -278.47782 C -15.000794 -278.14478 -14.976791 -277.81219 -14.929413 -277.48253 L -13.77186 -277.24017 C -12.218707 -276.92006 -11.374124 -275.54116 -11.90014 -274.14837 L -12.302699 -272.92622 C -11.773391 -272.51012 -11.187305 -272.17183 -10.562237 -271.92163 L -9.7715878 -272.80478 C -8.7177896 -273.9898 -7.1015504 -274.03217 -6.1583717 -272.88023 L -5.3051938 -271.92525 C -4.6850352 -272.17446 -4.1033858 -272.51044 -3.5776506 -272.92312 L -3.9486874 -274.05277 C -4.4480424 -275.5579 -3.6763867 -276.97865 -2.2071917 -277.2195 L -0.94732024 -277.48202 C -0.89974525 -277.81183 -0.87556915 -278.1446 -0.87497323 -278.47782 C -0.87512563 -278.80805 -0.89843725 -279.13787 -0.94473642 -279.46484 L -2.1126238 -279.70927 C -3.6657766 -280.02938 -4.5108769 -281.40828 -3.9848609 -282.80107 L -3.5786842 -284.03459 C -4.1059186 -284.44824 -4.689339 -284.78475 -5.3113949 -285.03401 z M -7.938108 -281.05079 A 2.5730808 2.5730808 0 0 1 -5.3651384 -278.47782 A 2.5730808 2.5730808 0 0 1 -7.938108 -275.90485 A 2.5730808 2.5730808 0 0 1 -10.511078 -278.47782 A 2.5730808 2.5730808 0 0 1 -7.938108 -281.05079 z " />
  </g>
  <g
     inkscape:label="Layer 1 copy 1 copy 1"
     inkscape:groupmode="layer"
     id="g5769"
     transform="translate(0,-270.54165)"
     style="display:inline" />
  <g
     inkscape:label="Layer 1 copy 1 copy 1 copy"
     inkscape:groupmode="layer"
     id="g5927"
     transform="translate(0,-270.54165)"
     style="display:inline" />
  <g
     inkscape:label="Layer 1 copy 1 copy 1 copy copy"
     inkscape:groupmode="layer"
     id="g5931"
     transform="translate(0,-270.54165)"
     style="display:inline" />
  <g
     inkscape:label="Layer 1 copy 1 copy 1 copy copy copy"
     inkscape:groupmode="layer"
     id="g5935"
     transform="translate(0,-270.54165)"
     style="display:inline" />
  <g
     inkscape:label="Layer 1 copy 1 copy 1 copy copy copy copy"
     inkscape:groupmode="layer"
     id="g5939"
     transform="translate(0,-270.54165)"
     style="display:inline" />
  <g
     inkscape:label="Layer 1 copy 1 copy 1 copy copy copy copy copy 1"
     inkscape:groupmode="layer"
     id="g6054"
     transform="translate(0,-270.54165)"
     style="display:none">
    <path
       style="fill:#ffffff;fill-opacity:1;stroke:#ffffff;stroke-width:0.264583;stroke-opacity:1"
       d="m 4.5883892,271.12927 1.5686943,1.7561 c 0.9431817,1.15194 2.5596428,1.10972 3.6134443,-0.0753 l 1.4731572,-1.64652 0.944173,0.59029 -4.6444331,7.88155 -3.8245965,-8.07348 z"
       id="path6052"
       sodipodi:nodetypes="cccccccc" />
  </g>
  <g
     inkscape:label="Layer 1 copy 1 copy 1 copy copy copy copy copy"
     inkscape:groupmode="layer"
     id="g5943"
     transform="translate(0,-270.54165)"
     style="display:inline" />
  <g
     inkscape:label="top"
     inkscape:groupmode="layer"
     id="g5765"
     transform="translate(0,-270.54165)"
     style="display:inline"
     inkscape:transform-center-x="-0.47207933"
     inkscape:transform-center-y="-3.5469151">
    <path
       style="display:inline;fill:#541717;fill-opacity:1;stroke:#714fff;stroke-width:0.0264583;stroke-dasharray:none;stroke-opacity:1"
       d="m 7.9375,276.96493 v 3.02844"
       id="path5835" />
    <path
       style="fill:#a0a0a0;fill-opacity:1;stroke:#a8a8a8;stroke-width:0.0251354;stroke-dasharray:none;stroke-opacity:0.761427"
       d="m 6.3691936,278.47915 2.8264016,1.9e-4"
       id="path6050" />
  </g>
  <g
     inkscape:label="backup"
     inkscape:groupmode="layer"
     id="g5653"
     transform="translate(0,-270.54165)"
     style="display:inline">
    <path
       id="path5647"
       style="display:none;fill:#a0a0a0;fill-opacity:1;stroke:#a8a8a8;stroke-width:1.05833;stroke-linejoin:round;stroke-miterlimit:4;stroke-dasharray:none;stroke-opacity:0.761427"
       d="m 4.7581729,272.97394 2.05e-4,3.6e-4 c 0.2271726,-0.12773 0.460884,-0.24342 0.700759,-0.34488 l 1.2382754,1.42922 c 0.8235357,-0.2447 1.6930552,-0.26546 2.5151996,-0.0603 l 1.2986701,-1.5016 c 0.464535,0.17846 0.904429,0.40958 1.311243,0.68903 l -0.637733,1.86483 c 0.337551,0.30832 0.625109,0.66602 0.853228,1.06072 0.22644,0.3949 0.390824,0.82225 0.487978,1.2683 l 1.936788,0.38042 c 0.04072,0.49157 0.02322,0.9878 -0.05228,1.47936 l -1.954806,0.37539 c -0.233311,0.81426 -0.685719,1.5565 -1.309019,2.14725 l 0.620175,1.79048 c -0.208275,0.15608 -0.425328,0.30025 -0.65004,0.43187 -0.227171,0.12773 -0.460881,0.24342 -0.700758,0.34488 l -1.2382757,-1.42922 c -0.8235354,0.2447 -1.6930447,0.26547 -2.5151988,0.0603 l -1.2986649,1.5016 C 4.8993791,284.2835 4.4594787,284.05237 4.0526692,283.77293 l 0.6375295,-1.86519 c -0.3375558,-0.30832 -0.6248988,-0.66566 -0.853019,-1.06036 -0.2264055,-0.39491 -0.3908447,-0.82226 -0.4879816,-1.2683 l -1.9367837,-0.38042 c -0.040805,-0.49149 -0.023681,-0.988 0.05171,-1.47952 l 1.9550162,-0.37503 c 0.2333665,-0.81436 0.6859487,-1.55667 1.3093786,-2.14746 l -0.6201749,-1.79047 c 0.2082751,-0.15608 0.4251271,-0.3006 0.6498381,-0.43222 z m 1.6663064,2.83644 a 3.0681153,3.1216846 59.99309 0 0 -0.021173,0.0122 3.0681153,3.1216846 59.99309 0 0 -1.1690728,4.21793 3.0681153,3.1216846 59.99309 0 0 4.2376436,1.09551 3.0681153,3.1216846 59.99309 0 0 1.1690739,-4.21794 3.0681153,3.1216846 59.99309 0 0 -4.2164762,-1.10773 z"
       inkscape:connector-curvature="0" />
    <path
       style="display:none;fill:#ffffff;fill-opacity:1;stroke:#ffffff;stroke-width:0.264583;stroke-opacity:1"
       d="m 4.5239786,271.15484 2.0163294,2.09011 c 0.6608323,0.82284 1.8561511,0.96006 2.6923518,0.0583 l 2.0397522,-2.114 0.915446,0.56467 -4.6444331,7.88155 -3.8245965,-8.07348 z"
       id="path5649"
       sodipodi:nodetypes="cccccccc" />
  </g>
</svg>
