<?xml version="1.0" encoding="UTF-8" standalone="no"?>
<!-- Created with Inkscape (http://www.inkscape.org/) -->

<svg
   width="90.6875"
   height="90.6875"
   viewBox="0 0 23.994401 23.994402"
   version="1.1"
   id="svg5"
   sodipodi:docname="x.svg"
   inkscape:version="1.2.1 (9c6d41e410, 2022-07-14)"
   inkscape:export-filename="x.png"
   inkscape:export-xdpi="105.85803"
   inkscape:export-ydpi="105.85803"
   xmlns:inkscape="http://www.inkscape.org/namespaces/inkscape"
   xmlns:sodipodi="http://sodipodi.sourceforge.net/DTD/sodipodi-0.dtd"
   xmlns="http://www.w3.org/2000/svg"
   xmlns:svg="http://www.w3.org/2000/svg">
  <sodipodi:namedview
     id="namedview7"
     pagecolor="#505050"
     bordercolor="#eeeeee"
     borderopacity="1"
     inkscape:pageshadow="0"
     inkscape:pageopacity="0"
     inkscape:pagecheckerboard="false"
     inkscape:document-units="mm"
     showgrid="false"
     units="px"
     inkscape:zoom="2.8284271"
     inkscape:cx="35.355339"
     inkscape:cy="43.133514"
     inkscape:window-width="3840"
     inkscape:window-height="2054"
     inkscape:window-x="2149"
     inkscape:window-y="1344"
     inkscape:window-maximized="1"
     inkscape:current-layer="g910"
     inkscape:showpageshadow="0"
     inkscape:deskcolor="#505050" />
  <defs
     id="defs2">
    <filter
       id="mask-powermask-path-effect1624_inverse"
       inkscape:label="filtermask-powermask-path-effect1624"
       style="color-interpolation-filters:sRGB"
       height="100"
       width="100"
       x="-50"
       y="-50">
      <feColorMatrix
         id="mask-powermask-path-effect1624_primitive1"
         values="1"
         type="saturate"
         result="fbSourceGraphic" />
      <feColorMatrix
         id="mask-powermask-path-effect1624_primitive2"
         values="-1 0 0 0 1 0 -1 0 0 1 0 0 -1 0 1 0 0 0 1 0 "
         in="fbSourceGraphic" />
    </filter>
    <filter
       id="mask-powermask-path-effect1629_inverse"
       inkscape:label="filtermask-powermask-path-effect1629"
       style="color-interpolation-filters:sRGB"
       height="100"
       width="100"
       x="-50"
       y="-50">
      <feColorMatrix
         id="mask-powermask-path-effect1629_primitive1"
         values="1"
         type="saturate"
         result="fbSourceGraphic" />
      <feColorMatrix
         id="mask-powermask-path-effect1629_primitive2"
         values="-1 0 0 0 1 0 -1 0 0 1 0 0 -1 0 1 0 0 0 1 0 "
         in="fbSourceGraphic" />
    </filter>
  </defs>
  <g
     inkscape:label="Layer 1 copy copy copy copy"
     inkscape:groupmode="layer"
     id="g910"
     style="display:inline"
     transform="translate(-1.2319656,-1.2319656)">
    <path
       id="circle906"
       style="opacity:1;fill:#ffffff;fill-opacity:1;stroke:#ffffff;stroke-width:0;stroke-linecap:round;stroke-linejoin:round;stroke-miterlimit:4;stroke-dasharray:none;stroke-opacity:1"
       d="M 13.229167,1.2319661 A 11.997352,11.997352 0 0 0 1.2319661,13.229167 a 11.997352,11.997352 0 0 0 11.9972009,11.9972 11.997352,11.997352 0 0 0 11.9972,-11.9972 11.997352,11.997352 0 0 0 -11.9972,-11.9972009 z m 4.952669,5.7210979 a 1.322915,1.322915 0 0 1 0.935343,0.3886067 1.322915,1.322915 0 0 1 0,1.8712036 l -4.016809,4.0168087 3.975985,3.975468 a 1.322915,1.322915 0 0 1 0,1.871204 1.322915,1.322915 0 0 1 -1.871204,0 L 13.229683,15.10037 9.2128743,19.117179 a 1.322915,1.322915 0 0 1 -1.8712036,0 1.322915,1.322915 0 0 1 0,-1.871203 L 11.35848,13.229167 7.3830119,9.2536987 a 1.322915,1.322915 0 0 1 0,-1.8706868 1.322915,1.322915 0 0 1 0.9353434,-0.3870565 1.322915,1.322915 0 0 1 0.9353434,0.3870565 L 13.229167,11.35848 17.245976,7.3416707 a 1.322915,1.322915 0 0 1 0.93586,-0.3886067 z" />
  </g>
  <g
     inkscape:label="Layer 1 copy copy copy copy copy"
     inkscape:groupmode="layer"
     id="g1007"
     style="display:none"
     transform="translate(-1.2319656,-1.2319656)">
    <circle
       style="opacity:1;fill:#ffffff;fill-opacity:1;stroke:#ffffff;stroke-width:0;stroke-linecap:round;stroke-linejoin:round;stroke-miterlimit:4;stroke-dasharray:none;stroke-opacity:1"
       id="circle1001"
       r="11.997352"
       cy="13.229167"
       cx="13.229167" />
    <path
       style="fill:none;stroke:#000000;stroke-width:2.64583;stroke-linecap:round;stroke-linejoin:miter;stroke-dasharray:none;stroke-opacity:1"
       d="M 8.3180892,8.3180888 18.140244,18.140245"
       id="path1003" />
    <path
       style="fill:none;stroke:#000000;stroke-width:2.64583;stroke-linecap:round;stroke-linejoin:miter;stroke-dasharray:none;stroke-opacity:1"
       d="M 8.2764972,18.181836 18.181836,8.2764971"
       id="path1005" />
  </g>
  <g
     inkscape:groupmode="layer"
     id="layer2"
     inkscape:label="Helper"
     style="display:none"
     transform="translate(-1.2319656,-1.2319656)">
    <circle
       style="opacity:1;fill:#18c800;fill-opacity:1;stroke:none;stroke-width:2.11667;stroke-linecap:round;stroke-linejoin:round;stroke-miterlimit:4;stroke-dasharray:none;stroke-opacity:1"
       id="path2789"
       cx="13.252553"
       cy="7.4848537"
       r="2.4804688" />
    <circle
       style="opacity:1;fill:#08ff00;fill-opacity:1;stroke:none;stroke-width:2.29681;stroke-linecap:round;stroke-linejoin:round;stroke-miterlimit:4;stroke-dasharray:none;stroke-opacity:1"
       id="path2791"
       cx="13.229167"
       cy="14.368318"
       r="1.6867187" />
  </g>
</svg>
